<svg width="33" height="33" viewBox="0 0 33 33" fill="none" xmlns="http://www.w3.org/2000/svg">
<g id="teenyicons:screen-outline" clip-path="url(#clip0_1_1460)">
<path id="Vector" d="M8.8001 31.8998H24.2001M1.1001 5.4998V23.0998C1.1001 23.6833 1.33188 24.2429 1.74446 24.6554C2.15704 25.068 2.71662 25.2998 3.3001 25.2998H29.7001C30.2836 25.2998 30.8432 25.068 31.2557 24.6554C31.6683 24.2429 31.9001 23.6833 31.9001 23.0998V5.4998C31.9001 4.91633 31.6683 4.35675 31.2557 3.94417C30.8432 3.53159 30.2836 3.2998 29.7001 3.2998H3.3001C2.71662 3.2998 2.15704 3.53159 1.74446 3.94417C1.33188 4.35675 1.1001 4.91633 1.1001 5.4998Z" stroke="#111111" stroke-width="3"/>
</g>
<defs>
<clipPath id="clip0_1_1460">
<rect width="33" height="33" fill="white"/>
</clipPath>
</defs>
</svg>
