<svg width="38" height="38" viewBox="0 0 38 38" fill="none" xmlns="http://www.w3.org/2000/svg">
<g id="streamline:legal-justice-scale-1-office-work-legal-scale-justice-company-arbitration-balance-court" clip-path="url(#clip0_1_1470)">
<path id="Vector" d="M4.07146 10.8573H33.9286M19 10.8573V5.42871M14.9286 25.7859L8.14289 10.8573L1.35718 25.7859C1.35718 27.5855 2.0721 29.3115 3.34467 30.5841C4.61724 31.8566 6.34321 32.5716 8.14289 32.5716C9.94258 32.5716 11.6685 31.8566 12.9411 30.5841C14.2137 29.3115 14.9286 27.5855 14.9286 25.7859ZM36.6429 25.7859L29.8572 10.8573L23.0715 25.7859C23.0715 27.5855 23.7864 29.3115 25.059 30.5841C26.3315 31.8566 28.0575 32.5716 29.8572 32.5716C31.6569 32.5716 33.3828 31.8566 34.6554 30.5841C35.928 29.3115 36.6429 27.5855 36.6429 25.7859Z" stroke="#111111" stroke-width="3" stroke-linecap="round" stroke-linejoin="round"/>
</g>
<defs>
<clipPath id="clip0_1_1470">
<rect width="38" height="38" fill="white"/>
</clipPath>
</defs>
</svg>
