<svg width="33" height="31" viewBox="0 0 33 31" fill="none" xmlns="http://www.w3.org/2000/svg">
<g id="streamline:interface-text-formatting-list-bullets-points-bullet-unordered-list-lists-bullets" clip-path="url(#clip0_1_1462)">
<g id="Group">
<path id="Vector" d="M2.35704 6.643C3.00795 6.643 3.53561 6.14731 3.53561 5.53585C3.53561 4.9244 3.00795 4.42871 2.35704 4.42871C1.70613 4.42871 1.17847 4.9244 1.17847 5.53585C1.17847 6.14731 1.70613 6.643 2.35704 6.643Z" stroke="white" stroke-width="3" stroke-linecap="round" stroke-linejoin="round"/>
<path id="Vector_2" d="M10.6069 5.53613H31.8212" stroke="white" stroke-width="3" stroke-linecap="round" stroke-linejoin="round"/>
<path id="Vector_3" d="M2.35704 16.6069C3.00795 16.6069 3.53561 16.1112 3.53561 15.4997C3.53561 14.8883 3.00795 14.3926 2.35704 14.3926C1.70613 14.3926 1.17847 14.8883 1.17847 15.4997C1.17847 16.1112 1.70613 16.6069 2.35704 16.6069Z" stroke="white" stroke-width="3" stroke-linecap="round" stroke-linejoin="round"/>
<path id="Vector_4" d="M10.6069 15.5H31.8212" stroke="white" stroke-width="3" stroke-linecap="round" stroke-linejoin="round"/>
<path id="Vector_5" d="M2.35704 26.5717C3.00795 26.5717 3.53561 26.076 3.53561 25.4646C3.53561 24.8531 3.00795 24.3574 2.35704 24.3574C1.70613 24.3574 1.17847 24.8531 1.17847 25.4646C1.17847 26.076 1.70613 26.5717 2.35704 26.5717Z" stroke="white" stroke-width="3" stroke-linecap="round" stroke-linejoin="round"/>
<path id="Vector_6" d="M10.6069 25.4648H31.8212" stroke="white" stroke-width="3" stroke-linecap="round" stroke-linejoin="round"/>
</g>
</g>
<defs>
<clipPath id="clip0_1_1462">
<rect width="33" height="31" fill="white"/>
</clipPath>
</defs>
</svg>
